<mxfile host="Electron" agent="Mozilla/5.0 (X11; Linux x86_64) AppleWebKit/537.36 (KHTML, like Gecko) draw.io/28.2.5 Chrome/138.0.7204.251 Electron/37.6.1 Safari/537.36" version="28.2.5">
  <diagram name="Seite-1" id="L2w308fRFKuACmfVMeDd">
    <mxGraphModel dx="440" dy="789" grid="1" gridSize="10" guides="1" tooltips="1" connect="1" arrows="1" fold="1" page="1" pageScale="1" pageWidth="540" pageHeight="550" math="0" shadow="0">
      <root>
        <mxCell id="0" />
        <mxCell id="1" parent="0" />
        <mxCell id="-GUm9ESn4JJGySwyKrLR-43" style="edgeStyle=orthogonalEdgeStyle;shape=connector;rounded=0;orthogonalLoop=1;jettySize=auto;html=1;entryX=0.5;entryY=0;entryDx=0;entryDy=0;strokeColor=default;align=center;verticalAlign=middle;fontFamily=Helvetica;fontSize=11;fontColor=default;labelBackgroundColor=default;endArrow=block;endFill=1;" edge="1" parent="1" source="-GUm9ESn4JJGySwyKrLR-33" target="-GUm9ESn4JJGySwyKrLR-35">
          <mxGeometry relative="1" as="geometry" />
        </mxCell>
        <mxCell id="-GUm9ESn4JJGySwyKrLR-33" value="AVPU? Interaktion mit Umgebung?&lt;br&gt;Pupillen? Tonus?" style="rounded=0;whiteSpace=wrap;html=1;fillColor=#f5f5f5;strokeColor=#666666;fontFamily=&quot;Roboto&quot;, &quot;Helvetica Neue&quot;, sans-serif;fontSize=10;fontColor=#333333;labelBackgroundColor=none;" vertex="1" parent="1">
          <mxGeometry y="620" width="240" height="40" as="geometry" />
        </mxCell>
        <mxCell id="-GUm9ESn4JJGySwyKrLR-40" style="edgeStyle=orthogonalEdgeStyle;shape=connector;rounded=0;orthogonalLoop=1;jettySize=auto;html=1;entryX=0.5;entryY=0;entryDx=0;entryDy=0;strokeColor=default;align=center;verticalAlign=middle;fontFamily=Helvetica;fontSize=11;fontColor=default;labelBackgroundColor=default;endArrow=block;endFill=1;" edge="1" parent="1" source="-GUm9ESn4JJGySwyKrLR-30" target="-GUm9ESn4JJGySwyKrLR-31">
          <mxGeometry relative="1" as="geometry" />
        </mxCell>
        <mxCell id="-GUm9ESn4JJGySwyKrLR-30" value="Herzfrequenz, Pulsqualität?&lt;br&gt;Perfusion (Rekap), Vorlast (Halsvenen)?" style="rounded=0;whiteSpace=wrap;html=1;fillColor=#f5f5f5;strokeColor=#666666;fontFamily=&quot;Roboto&quot;, &quot;Helvetica Neue&quot;, sans-serif;fontSize=10;fontColor=#333333;labelBackgroundColor=none;" vertex="1" parent="1">
          <mxGeometry y="480" width="240" height="40" as="geometry" />
        </mxCell>
        <mxCell id="-GUm9ESn4JJGySwyKrLR-23" style="edgeStyle=orthogonalEdgeStyle;shape=connector;rounded=0;orthogonalLoop=1;jettySize=auto;html=1;exitX=0.5;exitY=1;exitDx=0;exitDy=0;entryX=0.5;entryY=0;entryDx=0;entryDy=0;strokeColor=default;align=center;verticalAlign=middle;fontFamily=Helvetica;fontSize=11;fontColor=default;labelBackgroundColor=default;endArrow=block;endFill=1;" edge="1" parent="1" source="-GUm9ESn4JJGySwyKrLR-20" target="-GUm9ESn4JJGySwyKrLR-21">
          <mxGeometry relative="1" as="geometry" />
        </mxCell>
        <mxCell id="-GUm9ESn4JJGySwyKrLR-20" value="Atemfrequenz, Atemarbeit?&lt;div&gt;Atemzugvolumen, Oxygenierung?&lt;/div&gt;" style="rounded=0;whiteSpace=wrap;html=1;fillColor=#f5f5f5;strokeColor=#666666;fontFamily=&quot;Roboto&quot;, &quot;Helvetica Neue&quot;, sans-serif;fontSize=10;fontColor=#333333;labelBackgroundColor=none;" vertex="1" parent="1">
          <mxGeometry y="339.9999999999999" width="240" height="40" as="geometry" />
        </mxCell>
        <mxCell id="-GUm9ESn4JJGySwyKrLR-19" style="edgeStyle=orthogonalEdgeStyle;shape=connector;rounded=0;orthogonalLoop=1;jettySize=auto;html=1;strokeColor=default;align=center;verticalAlign=middle;fontFamily=Helvetica;fontSize=11;fontColor=default;labelBackgroundColor=default;endArrow=block;endFill=1;" edge="1" parent="1" source="-GUm9ESn4JJGySwyKrLR-18" target="-GUm9ESn4JJGySwyKrLR-6">
          <mxGeometry relative="1" as="geometry" />
        </mxCell>
        <mxCell id="-GUm9ESn4JJGySwyKrLR-18" value="Offen und sicher?&lt;br&gt;Gefährdet oder verlegt?" style="rounded=0;whiteSpace=wrap;html=1;fillColor=#f5f5f5;strokeColor=#666666;fontFamily=&quot;Roboto&quot;, &quot;Helvetica Neue&quot;, sans-serif;fontSize=10;fontColor=#333333;labelBackgroundColor=none;" vertex="1" parent="1">
          <mxGeometry y="199.9999999999999" width="240" height="40" as="geometry" />
        </mxCell>
        <mxCell id="bO4cj00JHxBitIa0UD0s-28" style="edgeStyle=orthogonalEdgeStyle;shape=connector;rounded=0;orthogonalLoop=1;jettySize=auto;html=1;strokeColor=default;align=center;verticalAlign=middle;fontFamily=Helvetica;fontSize=11;fontColor=default;labelBackgroundColor=default;endArrow=block;endFill=1;entryX=0.5;entryY=0;entryDx=0;entryDy=0;" parent="1" edge="1">
          <mxGeometry relative="1" as="geometry">
            <Array as="points">
              <mxPoint x="270" y="70" />
              <mxPoint x="270" y="70" />
            </Array>
            <mxPoint x="270" y="79.99999999999989" as="targetPoint" />
            <mxPoint x="270" y="60" as="sourcePoint" />
          </mxGeometry>
        </mxCell>
        <mxCell id="bO4cj00JHxBitIa0UD0s-1" value="Erkennen des kritisch kranken Kindes" style="rounded=1;whiteSpace=wrap;html=1;arcSize=50;fillColor=#111111;fontColor=#F7F7F7;fontFamily=&quot;Roboto&quot;, &quot;Helvetica Neue&quot;, sans-serif;fontSize=14;fontStyle=1;labelBackgroundColor=none;strokeColor=default;" parent="1" vertex="1">
          <mxGeometry width="540" height="60" as="geometry" />
        </mxCell>
        <mxCell id="-GUm9ESn4JJGySwyKrLR-1" style="edgeStyle=orthogonalEdgeStyle;rounded=0;orthogonalLoop=1;jettySize=auto;html=1;exitX=0.625;exitY=1;exitDx=0;exitDy=0;entryX=0.5;entryY=0;entryDx=0;entryDy=0;endArrow=block;endFill=1;" edge="1" parent="1" target="-GUm9ESn4JJGySwyKrLR-7">
          <mxGeometry relative="1" as="geometry">
            <mxPoint x="420" y="160" as="targetPoint" />
            <mxPoint x="419.5" y="120" as="sourcePoint" />
          </mxGeometry>
        </mxCell>
        <mxCell id="-GUm9ESn4JJGySwyKrLR-2" value="NEIN" style="edgeLabel;html=1;align=center;verticalAlign=middle;resizable=0;points=[];" vertex="1" connectable="0" parent="-GUm9ESn4JJGySwyKrLR-1">
          <mxGeometry x="-0.1111" y="4" relative="1" as="geometry">
            <mxPoint x="-5" y="-1" as="offset" />
          </mxGeometry>
        </mxCell>
        <mxCell id="q4PwxwjqPayS1MS6TFGu-1" value="Reagiert das Kind?" style="shape=hexagon;perimeter=hexagonPerimeter2;whiteSpace=wrap;html=1;fixedSize=1;fontSize=14;fontFamily=&quot;Roboto&quot;, &quot;Helvetica Neue&quot;, sans-serif;size=20;fontColor=default;labelBackgroundColor=none;" parent="1" vertex="1">
          <mxGeometry y="80" width="540" height="40" as="geometry" />
        </mxCell>
        <mxCell id="-GUm9ESn4JJGySwyKrLR-3" style="edgeStyle=orthogonalEdgeStyle;rounded=0;orthogonalLoop=1;jettySize=auto;html=1;exitX=0.625;exitY=1;exitDx=0;exitDy=0;endArrow=block;endFill=1;" edge="1" parent="1">
          <mxGeometry relative="1" as="geometry">
            <mxPoint x="120" y="160" as="targetPoint" />
            <mxPoint x="120" y="120" as="sourcePoint" />
          </mxGeometry>
        </mxCell>
        <mxCell id="-GUm9ESn4JJGySwyKrLR-4" value="JA" style="edgeLabel;html=1;align=center;verticalAlign=middle;resizable=0;points=[];" vertex="1" connectable="0" parent="-GUm9ESn4JJGySwyKrLR-3">
          <mxGeometry x="-0.1111" y="4" relative="1" as="geometry">
            <mxPoint x="-5" y="-1" as="offset" />
          </mxGeometry>
        </mxCell>
        <mxCell id="-GUm9ESn4JJGySwyKrLR-14" style="edgeStyle=orthogonalEdgeStyle;rounded=0;orthogonalLoop=1;jettySize=auto;html=1;entryX=0.5;entryY=0;entryDx=0;entryDy=0;endArrow=block;endFill=1;" edge="1" parent="1" source="-GUm9ESn4JJGySwyKrLR-6" target="-GUm9ESn4JJGySwyKrLR-10">
          <mxGeometry relative="1" as="geometry" />
        </mxCell>
        <UserObject label="Atemwege stabilisieren" link="/?action=atemwege" id="-GUm9ESn4JJGySwyKrLR-6">
          <mxCell style="rounded=0;whiteSpace=wrap;html=1;fillColor=#dae8fc;strokeColor=#6c8ebf;fontFamily=&quot;Roboto&quot;, &quot;Helvetica Neue&quot;, sans-serif;fontSize=14;dashed=1;fontColor=default;labelBackgroundColor=none;" vertex="1" parent="1">
            <mxGeometry y="249.9999999999999" width="240" height="40" as="geometry" />
          </mxCell>
        </UserObject>
        <mxCell id="-GUm9ESn4JJGySwyKrLR-15" style="edgeStyle=orthogonalEdgeStyle;shape=connector;rounded=0;orthogonalLoop=1;jettySize=auto;html=1;strokeColor=default;align=center;verticalAlign=middle;fontFamily=Helvetica;fontSize=11;fontColor=default;labelBackgroundColor=default;endArrow=block;endFill=1;" edge="1" parent="1" source="-GUm9ESn4JJGySwyKrLR-7" target="-GUm9ESn4JJGySwyKrLR-11">
          <mxGeometry relative="1" as="geometry" />
        </mxCell>
        <UserObject label="Atemwege freimachen" link="/?action=atemwege" id="-GUm9ESn4JJGySwyKrLR-7">
          <mxCell style="rounded=0;whiteSpace=wrap;html=1;fillColor=#dae8fc;strokeColor=#6c8ebf;fontFamily=&quot;Roboto&quot;, &quot;Helvetica Neue&quot;, sans-serif;fontSize=14;dashed=1;fontColor=default;labelBackgroundColor=none;" vertex="1" parent="1">
            <mxGeometry x="300" y="250" width="240" height="40" as="geometry" />
          </mxCell>
        </UserObject>
        <mxCell id="-GUm9ESn4JJGySwyKrLR-8" value="&lt;b&gt;A &lt;/b&gt;Atemweg beurteilen" style="rounded=0;whiteSpace=wrap;html=1;fillColor=#dae8fc;strokeColor=#6c8ebf;fontFamily=&quot;Roboto&quot;, &quot;Helvetica Neue&quot;, sans-serif;fontSize=14;fontColor=default;labelBackgroundColor=none;" vertex="1" parent="1">
          <mxGeometry y="159.9999999999999" width="240" height="40" as="geometry" />
        </mxCell>
        <mxCell id="-GUm9ESn4JJGySwyKrLR-10" value="&lt;b&gt;B&amp;nbsp;&lt;/b&gt;Atmung beurteilen" style="rounded=0;whiteSpace=wrap;html=1;fillColor=#dae8fc;strokeColor=#6c8ebf;fontFamily=&quot;Roboto&quot;, &quot;Helvetica Neue&quot;, sans-serif;fontSize=14;fontColor=default;labelBackgroundColor=none;" vertex="1" parent="1">
          <mxGeometry y="300" width="240" height="40" as="geometry" />
        </mxCell>
        <mxCell id="-GUm9ESn4JJGySwyKrLR-12" style="edgeStyle=orthogonalEdgeStyle;rounded=0;orthogonalLoop=1;jettySize=auto;html=1;entryX=1;entryY=0.5;entryDx=0;entryDy=0;endArrow=block;endFill=1;" edge="1" parent="1" source="-GUm9ESn4JJGySwyKrLR-11" target="-GUm9ESn4JJGySwyKrLR-10">
          <mxGeometry relative="1" as="geometry" />
        </mxCell>
        <mxCell id="-GUm9ESn4JJGySwyKrLR-13" value="JA" style="edgeLabel;html=1;align=center;verticalAlign=middle;resizable=0;points=[];" vertex="1" connectable="0" parent="-GUm9ESn4JJGySwyKrLR-12">
          <mxGeometry x="-0.0794" y="1" relative="1" as="geometry">
            <mxPoint y="-1" as="offset" />
          </mxGeometry>
        </mxCell>
        <mxCell id="-GUm9ESn4JJGySwyKrLR-11" value="Normale Atmung?" style="shape=hexagon;perimeter=hexagonPerimeter2;whiteSpace=wrap;html=1;fixedSize=1;fontSize=14;fontFamily=&quot;Roboto&quot;, &quot;Helvetica Neue&quot;, sans-serif;size=20;fontColor=default;labelBackgroundColor=none;" vertex="1" parent="1">
          <mxGeometry x="300" y="300" width="240" height="40" as="geometry" />
        </mxCell>
        <mxCell id="-GUm9ESn4JJGySwyKrLR-16" style="edgeStyle=orthogonalEdgeStyle;rounded=0;orthogonalLoop=1;jettySize=auto;html=1;exitX=0.625;exitY=1;exitDx=0;exitDy=0;endArrow=block;endFill=1;entryX=0.5;entryY=0;entryDx=0;entryDy=0;" edge="1" parent="1" target="-GUm9ESn4JJGySwyKrLR-22">
          <mxGeometry relative="1" as="geometry">
            <mxPoint x="420" y="380" as="targetPoint" />
            <mxPoint x="420" y="340" as="sourcePoint" />
          </mxGeometry>
        </mxCell>
        <mxCell id="-GUm9ESn4JJGySwyKrLR-17" value="NEIN" style="edgeLabel;html=1;align=center;verticalAlign=middle;resizable=0;points=[];" vertex="1" connectable="0" parent="-GUm9ESn4JJGySwyKrLR-16">
          <mxGeometry x="-0.1111" y="4" relative="1" as="geometry">
            <mxPoint x="-5" as="offset" />
          </mxGeometry>
        </mxCell>
        <mxCell id="-GUm9ESn4JJGySwyKrLR-25" value="" style="edgeStyle=orthogonalEdgeStyle;shape=connector;rounded=0;orthogonalLoop=1;jettySize=auto;html=1;strokeColor=default;align=center;verticalAlign=middle;fontFamily=Helvetica;fontSize=11;fontColor=default;labelBackgroundColor=default;endArrow=block;endFill=1;" edge="1" parent="1" source="-GUm9ESn4JJGySwyKrLR-21" target="-GUm9ESn4JJGySwyKrLR-24">
          <mxGeometry relative="1" as="geometry" />
        </mxCell>
        <mxCell id="-GUm9ESn4JJGySwyKrLR-21" value="O2-Gabe / Assistierte Beatmung" style="rounded=0;whiteSpace=wrap;html=1;fillColor=#dae8fc;strokeColor=#6c8ebf;fontFamily=&quot;Roboto&quot;, &quot;Helvetica Neue&quot;, sans-serif;fontSize=14;fontColor=default;labelBackgroundColor=none;" vertex="1" parent="1">
          <mxGeometry y="389.9999999999999" width="240" height="40" as="geometry" />
        </mxCell>
        <mxCell id="-GUm9ESn4JJGySwyKrLR-27" value="" style="edgeStyle=orthogonalEdgeStyle;shape=connector;rounded=0;orthogonalLoop=1;jettySize=auto;html=1;strokeColor=default;align=center;verticalAlign=middle;fontFamily=Helvetica;fontSize=11;fontColor=default;labelBackgroundColor=default;endArrow=block;endFill=1;" edge="1" parent="1" source="-GUm9ESn4JJGySwyKrLR-22" target="-GUm9ESn4JJGySwyKrLR-26">
          <mxGeometry relative="1" as="geometry" />
        </mxCell>
        <mxCell id="-GUm9ESn4JJGySwyKrLR-22" value="5 Beatmungen" style="rounded=0;whiteSpace=wrap;html=1;fillColor=#dae8fc;strokeColor=#6c8ebf;fontFamily=&quot;Roboto&quot;, &quot;Helvetica Neue&quot;, sans-serif;fontSize=14;fontColor=default;labelBackgroundColor=none;" vertex="1" parent="1">
          <mxGeometry x="300" y="389.9999999999999" width="240" height="40" as="geometry" />
        </mxCell>
        <mxCell id="-GUm9ESn4JJGySwyKrLR-24" value="&lt;b&gt;C&amp;nbsp;&lt;/b&gt;Kreislauf beurteilen" style="rounded=0;whiteSpace=wrap;html=1;fillColor=#dae8fc;strokeColor=#6c8ebf;fontFamily=&quot;Roboto&quot;, &quot;Helvetica Neue&quot;, sans-serif;fontSize=14;fontColor=default;labelBackgroundColor=none;" vertex="1" parent="1">
          <mxGeometry y="440" width="240" height="40" as="geometry" />
        </mxCell>
        <mxCell id="-GUm9ESn4JJGySwyKrLR-26" value="Normale Atmung?" style="shape=hexagon;perimeter=hexagonPerimeter2;whiteSpace=wrap;html=1;fixedSize=1;fontSize=14;fontFamily=&quot;Roboto&quot;, &quot;Helvetica Neue&quot;, sans-serif;size=20;fontColor=default;labelBackgroundColor=none;" vertex="1" parent="1">
          <mxGeometry x="300" y="440" width="240" height="40" as="geometry" />
        </mxCell>
        <mxCell id="-GUm9ESn4JJGySwyKrLR-28" style="edgeStyle=orthogonalEdgeStyle;rounded=0;orthogonalLoop=1;jettySize=auto;html=1;entryX=1;entryY=0.5;entryDx=0;entryDy=0;endArrow=block;endFill=1;" edge="1" parent="1">
          <mxGeometry relative="1" as="geometry">
            <mxPoint x="300" y="460" as="sourcePoint" />
            <mxPoint x="240" y="460" as="targetPoint" />
          </mxGeometry>
        </mxCell>
        <mxCell id="-GUm9ESn4JJGySwyKrLR-29" value="JA" style="edgeLabel;html=1;align=center;verticalAlign=middle;resizable=0;points=[];" vertex="1" connectable="0" parent="-GUm9ESn4JJGySwyKrLR-28">
          <mxGeometry x="-0.0794" y="1" relative="1" as="geometry">
            <mxPoint y="-1" as="offset" />
          </mxGeometry>
        </mxCell>
        <mxCell id="-GUm9ESn4JJGySwyKrLR-42" style="edgeStyle=orthogonalEdgeStyle;shape=connector;rounded=0;orthogonalLoop=1;jettySize=auto;html=1;entryX=0.5;entryY=0;entryDx=0;entryDy=0;strokeColor=default;align=center;verticalAlign=middle;fontFamily=Helvetica;fontSize=11;fontColor=default;labelBackgroundColor=default;endArrow=block;endFill=1;" edge="1" parent="1" source="-GUm9ESn4JJGySwyKrLR-31" target="-GUm9ESn4JJGySwyKrLR-32">
          <mxGeometry relative="1" as="geometry" />
        </mxCell>
        <mxCell id="-GUm9ESn4JJGySwyKrLR-31" value="iv/io-Zugang&lt;br&gt;Volumenbolus &lt;font style=&quot;font-size: 11px;&quot;&gt;20ml/kg&lt;/font&gt;" style="rounded=0;whiteSpace=wrap;html=1;fillColor=#dae8fc;strokeColor=#6c8ebf;fontFamily=&quot;Roboto&quot;, &quot;Helvetica Neue&quot;, sans-serif;fontSize=14;fontColor=default;labelBackgroundColor=none;" vertex="1" parent="1">
          <mxGeometry y="530" width="240" height="40" as="geometry" />
        </mxCell>
        <mxCell id="-GUm9ESn4JJGySwyKrLR-32" value="&lt;b&gt;D&amp;nbsp;&lt;/b&gt;Bewusstseinslage prüfen" style="rounded=0;whiteSpace=wrap;html=1;fillColor=#dae8fc;strokeColor=#6c8ebf;fontFamily=&quot;Roboto&quot;, &quot;Helvetica Neue&quot;, sans-serif;fontSize=14;fontColor=default;labelBackgroundColor=none;" vertex="1" parent="1">
          <mxGeometry y="580" width="240" height="40" as="geometry" />
        </mxCell>
        <mxCell id="-GUm9ESn4JJGySwyKrLR-34" value="Temperatur? Verletzungen?&lt;br&gt;Umgebung?" style="rounded=0;whiteSpace=wrap;html=1;fillColor=#f5f5f5;strokeColor=#666666;fontFamily=&quot;Roboto&quot;, &quot;Helvetica Neue&quot;, sans-serif;fontSize=10;fontColor=#333333;labelBackgroundColor=none;" vertex="1" parent="1">
          <mxGeometry y="710" width="240" height="40" as="geometry" />
        </mxCell>
        <mxCell id="-GUm9ESn4JJGySwyKrLR-35" value="&lt;b&gt;E&lt;/b&gt;&amp;nbsp;Exposure" style="rounded=0;whiteSpace=wrap;html=1;fillColor=#dae8fc;strokeColor=#6c8ebf;fontFamily=&quot;Roboto&quot;, &quot;Helvetica Neue&quot;, sans-serif;fontSize=14;fontColor=default;labelBackgroundColor=none;" vertex="1" parent="1">
          <mxGeometry y="670" width="240" height="40" as="geometry" />
        </mxCell>
        <mxCell id="-GUm9ESn4JJGySwyKrLR-36" style="edgeStyle=orthogonalEdgeStyle;rounded=0;orthogonalLoop=1;jettySize=auto;html=1;exitX=0.625;exitY=1;exitDx=0;exitDy=0;endArrow=block;endFill=1;" edge="1" parent="1">
          <mxGeometry relative="1" as="geometry">
            <mxPoint x="420" y="520" as="targetPoint" />
            <mxPoint x="420" y="481" as="sourcePoint" />
          </mxGeometry>
        </mxCell>
        <mxCell id="-GUm9ESn4JJGySwyKrLR-37" value="NEIN" style="edgeLabel;html=1;align=center;verticalAlign=middle;resizable=0;points=[];" vertex="1" connectable="0" parent="-GUm9ESn4JJGySwyKrLR-36">
          <mxGeometry x="-0.1111" y="4" relative="1" as="geometry">
            <mxPoint x="-5" as="offset" />
          </mxGeometry>
        </mxCell>
        <mxCell id="-GUm9ESn4JJGySwyKrLR-38" value="Kinder-Reanimation&lt;br&gt;15:2" style="rounded=1;whiteSpace=wrap;html=1;arcSize=50;fillColor=#111111;fontColor=#F7F7F7;fontFamily=&quot;Roboto&quot;, &quot;Helvetica Neue&quot;, sans-serif;fontSize=14;fontStyle=1;labelBackgroundColor=none;strokeColor=default;" vertex="1" parent="1">
          <mxGeometry x="300" y="520" width="240" height="60" as="geometry" />
        </mxCell>
      </root>
    </mxGraphModel>
  </diagram>
</mxfile>
